<svg width="16" height="16" xmlns="http://www.w3.org/2000/svg">

 <g>
  <title>background</title>
  <rect fill="none" id="canvas_background" height="18" width="18" y="-1" x="-1"/>
 </g>
 <g>
  <title>Layer 1</title>
  <path stroke="null" id="svg_1" d="m7.18961,10.37611l1.579129,0l0,1.57707l-1.579129,0l0,-1.57707m0,-6.308282l1.579129,0l0,4.731211l-1.579129,0l0,-4.731211m0.789565,-3.942676c-4.366293,0 -7.895647,3.548408 -7.895647,7.885352a7.895647,7.885352 0 0 0 7.895647,7.885352a7.895647,7.885352 0 0 0 7.895647,-7.885352a7.895647,7.885352 0 0 0 -7.895647,-7.885352m0,14.193634a6.316517,6.308282 0 0 1 -6.316517,-6.308282a6.316517,6.308282 0 0 1 6.316517,-6.308282a6.316517,6.308282 0 0 1 6.316517,6.308282a6.316517,6.308282 0 0 1 -6.316517,6.308282z"/>
 </g>
</svg>