<svg width="24" height="24" xmlns="http://www.w3.org/2000/svg" class="icon">
 <g>
  <title>background</title>
  <rect x="-1" y="-1" width="4.999878" height="4.999878" id="canvas_background" fill="none"/>
 </g>

 <g>
  <title>Layer 1</title>
  <path fill="#6c6c6c" stroke="null" d="m4.136744,3.125785c-0.168201,0.043075 -0.690056,0.383364 -0.836693,0.551355c-0.207016,0.228296 -0.396782,0.538434 -0.457162,0.732269c-0.09057,0.30583 -0.09057,15.584413 0,15.799786c0.181139,0.435054 0.633988,0.895953 1.147217,1.167324c0.146637,0.077535 0.405408,0.081842 7.978769,0.081842l7.827819,0l0.194078,-0.090457c0.301899,-0.146454 0.68143,-0.482436 0.918637,-0.818418c0.202704,-0.297215 0.215642,-0.327367 0.250145,-0.702117c0.025877,-0.223988 0.034503,-3.592427 0.03019,-7.874049c-0.012939,-6.844564 -0.017251,-7.499299 -0.081944,-7.637138c-0.198391,-0.413517 -0.448536,-0.710732 -0.83238,-0.96918l-0.379531,-0.258448l-7.814881,-0.008615c-4.295596,0 -7.870948,0.008615 -7.944266,0.025845l0.000001,0.000001zm5.011529,3.730266c0.09057,0.03446 0.487352,0.391979 0.961765,0.857186c0.642614,0.62889 0.841006,0.801189 0.979017,0.839956c0.228581,0.064612 1.578502,0.060304 1.794145,-0.004308c0.129385,-0.038767 0.340715,-0.223988 0.935888,-0.814111c0.426972,-0.422131 0.849631,-0.805496 0.948826,-0.852878c0.327776,-0.167991 0.68143,-0.086149 0.884134,0.202451c0.224268,0.327367 0.189765,0.603045 -0.129385,0.960565c-0.323464,0.361827 -0.237207,0.525511 0.306212,0.577201c0.405408,0.03446 0.543419,0.081842 0.944514,0.318752c0.414033,0.241218 0.603799,0.452284 0.875509,0.964873l0.207016,0.396287l0,5.384333l-0.21133,0.422131c-0.224268,0.443669 -0.513229,0.766729 -0.927263,1.025177c-0.405408,0.258448 -0.401095,0.258448 -4.877832,0.245526l-4.075642,-0.012923l-0.254458,-0.103379c-0.138011,-0.055997 -0.401095,-0.21968 -0.577922,-0.366135c-0.345028,-0.275678 -0.552045,-0.568586 -0.754748,-1.059637c-0.094883,-0.236911 -0.094883,-0.245526 -0.094883,-2.847235l0,-2.610324l0.224268,-0.452284c0.181139,-0.361827 0.280335,-0.503974 0.487352,-0.693502c0.370905,-0.344598 0.845318,-0.568586 1.276603,-0.61166c0.586548,-0.051689 0.672804,-0.198143 0.340715,-0.585815c-0.107822,-0.124916 -0.207016,-0.2886 -0.219955,-0.370442c-0.112134,-0.590123 0.418346,-1.0381 0.957452,-0.809804l0.000002,0.000001z" id="svg_1"/>
  <path fill="#6c6c6c" stroke="null" d="m7.750235,9.527256c-0.219363,0.041516 -0.365604,0.140117 -0.560594,0.389214c-0.277859,0.347697 -0.272985,0.311371 -0.272985,3.129279s-0.004875,2.740065 0.272985,3.175984c0.263235,0.399593 -0.004875,0.378834 4.504244,0.394403c2.213124,0.010379 4.158139,0 4.32388,-0.015569c0.380228,-0.041516 0.575218,-0.176444 0.784831,-0.5449l0.155991,-0.280234l0,-2.68298c0,-1.764436 -0.019499,-2.734876 -0.053622,-2.833476c-0.073121,-0.207581 -0.370479,-0.576037 -0.541095,-0.669448c-0.126742,-0.067464 -0.648338,-0.083033 -4.280007,-0.088222c-2.276496,-0.00519 -4.226386,0.00519 -4.333629,0.025947l0.000001,0.000001zm1.910892,1.82671c0.233987,0.10379 0.555719,0.461867 0.614215,0.690206c0.068246,0.254286 0.068246,0.86665 0,1.120935c-0.058497,0.223149 -0.287609,0.524141 -0.487472,0.638311c-0.194989,0.10379 -0.575218,0.093411 -0.755582,-0.025947c-0.087745,-0.057084 -0.204738,-0.207581 -0.26811,-0.352887c-0.10237,-0.21796 -0.116993,-0.32175 -0.116993,-0.825133c0,-0.5449 0.004875,-0.586415 0.146241,-0.825133c0.097495,-0.166064 0.219363,-0.290613 0.360729,-0.373645c0.248611,-0.140117 0.297358,-0.145307 0.506971,-0.046706l0.000001,0zm5.020965,0c0.487472,0.21277 0.71171,0.944492 0.541095,1.748868c-0.068246,0.311371 -0.116993,0.420351 -0.263235,0.576037c-0.170615,0.181633 -0.204738,0.197201 -0.458224,0.197201c-0.463099,0 -0.745833,-0.238718 -0.8872,-0.75767c-0.087745,-0.32175 -0.058497,-0.980818 0.053622,-1.214347c0.121868,-0.249097 0.584966,-0.622742 0.770207,-0.622742c0.048747,0 0.155991,0.031137 0.243736,0.072653l-0.000001,0z" id="svg_2"/>
 </g>
</svg>