<svg width="16" height="16" xmlns="http://www.w3.org/2000/svg">

 <g>
  <title>background</title>
  <rect fill="none" id="canvas_background" height="18" width="18" y="-1" x="-1"/>
 </g>
 <g>
  <title>Layer 1</title>
  <path stroke="null" id="svg_1" d="m8.031251,14.300002a6.325,6.3 0 0 0 6.325,-6.3a6.325,6.3 0 0 0 -6.325,-6.3a6.325,6.3 0 0 0 -6.325,6.3a6.325,6.3 0 0 0 6.325,6.3m0,-14.175001a7.90625,7.875 0 0 1 7.90625,7.875a7.90625,7.875 0 0 1 -7.90625,7.875c-4.372156,0 -7.90625,-3.54375 -7.90625,-7.875a7.90625,7.875 0 0 1 7.90625,-7.875m0.395313,3.9375l0,4.134375l3.557813,2.102625l-0.592969,0.968625l-4.150781,-2.480625l0,-4.725l1.185938,0z"/>
 </g>
</svg>