<svg width="24" height="24" xmlns="http://www.w3.org/2000/svg">

 <g>
  <title>background</title>
  <rect fill="none" id="canvas_background" height="4.999878" width="4.999878" y="-1" x="-1"/>
 </g>
 <g>
  <title>Layer 1</title>
  <path fill="#6c6c6c" id="svg_1" d="m5,3l14,0a2,2 0 0 1 2,2l0,14a2,2 0 0 1 -2,2l-4.44,0c-0.32,-0.07 -0.33,-0.68 -0.33,-0.89l0.01,-2.47c0,-0.84 -0.29,-1.39 -0.61,-1.67c2.01,-0.22 4.11,-0.97 4.11,-4.44c0,-0.98 -0.35,-1.79 -0.92,-2.42c0.09,-0.22 0.4,-1.14 -0.09,-2.38c0,0 -0.76,-0.23 -2.48,0.93c-0.72,-0.2 -1.48,-0.3 -2.25,-0.31c-0.76,0.01 -1.54,0.11 -2.25,0.31c-1.72,-1.16 -2.48,-0.93 -2.48,-0.93c-0.49,1.24 -0.18,2.16 -0.09,2.38c-0.57,0.63 -0.92,1.44 -0.92,2.42c0,3.47 2.1,4.22 4.1,4.47c-0.26,0.2 -0.49,0.6 -0.57,1.18c-0.52,0.23 -1.82,0.63 -2.62,-0.75c0,0 -0.48,-0.86 -1.38,-0.93c0,0 -0.88,0 -0.06,0.55c0,0 0.59,0.28 1,1.32c0,0 0.52,1.75 3.03,1.21l0.01,1.53c0,0.21 -0.02,0.82 -0.34,0.89l-4.43,0a2,2 0 0 1 -2,-2l0,-14a2,2 0 0 1 2,-2z"/>
 </g>
</svg>