<svg width="24" height="24" xmlns="http://www.w3.org/2000/svg">

 <g>
  <title>background</title>
  <rect fill="none" id="canvas_background" height="4.999878" width="4.999878" y="-1" x="-1"/>
 </g>
 <g>
  <title>Layer 1</title>
  <path fill="#6c6c6c" id="svg_1" d="m5,3l14,0a2,2 0 0 1 2,2l0,14a2,2 0 0 1 -2,2l-14,0a2,2 0 0 1 -2,-2l0,-14a2,2 0 0 1 2,-2m14.5,9l-1.5,0l0,-1.5l-1,0l0,1.5l-1.5,0l0,1l1.5,0l0,1.5l1,0l0,-1.5l1.5,0l0,-1m-9.85,-0.64l0,1.54l2.57,0c-0.13,0.64 -0.77,1.93 -2.57,1.93c-1.54,0 -2.76,-1.29 -2.76,-2.83c0,-1.54 1.22,-2.83 2.76,-2.83c0.9,0 1.48,0.39 1.8,0.71l1.22,-1.16c-0.77,-0.77 -1.8,-1.22 -3.02,-1.22c-2.51,0 -4.5,2 -4.5,4.5c0,2.5 1.99,4.5 4.5,4.5c2.57,0 4.31,-1.8 4.31,-4.37c0,-0.32 0,-0.52 -0.07,-0.77l-4.24,0z"/>
 </g>
</svg>