<svg width="16" height="16" xmlns="http://www.w3.org/2000/svg">

 <g>
  <title>background</title>
  <rect fill="none" id="canvas_background" height="18" width="18" y="-1" x="-1"/>
 </g>
 <g>
  <title>Layer 1</title>
  <path stroke="null" id="svg_1" d="m6.790245,9.209786c0.351777,0.334617 0.351777,0.883733 0,1.218351c-0.334617,0.334617 -0.883733,0.334617 -1.218351,0c-1.673087,-1.673087 -1.673087,-4.392927 0,-6.066014l0,0l3.037297,-3.037297c1.673087,-1.673087 4.392927,-1.673087 6.066014,0c1.673087,1.673087 1.673087,4.392927 0,6.066014l-1.27841,1.27841c0.00858,-0.703555 -0.102959,-1.407109 -0.343197,-2.076344l0.403257,-0.411837c1.012432,-1.003852 1.012432,-2.63404 0,-3.637892c-1.003852,-1.012432 -2.63404,-1.012432 -3.637892,0l-3.028717,3.028717c-1.012432,1.003852 -1.012432,2.63404 0,3.637892m2.419542,-3.637892c0.334617,-0.334617 0.883733,-0.334617 1.218351,0c1.673087,1.673087 1.673087,4.392927 0,6.066014l0,0l-3.037297,3.037297c-1.673087,1.673087 -4.392927,1.673087 -6.066014,0c-1.673087,-1.673087 -1.673087,-4.392927 0,-6.066014l1.27841,-1.27841c-0.00858,0.703555 0.102959,1.407109 0.343197,2.084924l-0.403257,0.403257c-1.012432,1.003852 -1.012432,2.63404 0,3.637892c1.003852,1.012432 2.63404,1.012432 3.637892,0l3.028717,-3.028717c1.012432,-1.003852 1.012432,-2.63404 0,-3.637892c-0.351777,-0.334617 -0.351777,-0.883733 0,-1.218351z"/>
 </g>
</svg>