<svg width="16" height="16" xmlns="http://www.w3.org/2000/svg">

 <g>
  <title>background</title>
  <rect fill="none" id="canvas_background" height="18" width="18" y="-1" x="-1"/>
 </g>
 <g>
  <title>Layer 1</title>
  <path stroke="null" id="svg_1" d="m14.173619,0.062505l-12.347225,0c-0.978959,0 -1.763889,0.784931 -1.763889,1.763889l0,3.527779l1.763889,0l0,-3.527779l12.347225,0l0,12.347225l-12.347225,0l0,-3.527779l-1.763889,0l0,3.527779a1.763889,1.763889 0 0 0 1.763889,1.763889l12.347225,0a1.763889,1.763889 0 0 0 1.763889,-1.763889l0,-12.347225c0,-0.978959 -0.79375,-1.763889 -1.763889,-1.763889m-7.866946,11.094863l1.252361,1.252361l4.409723,-4.409723l-4.409723,-4.409723l-1.252361,1.243542l2.284237,2.284237l-8.528405,0l0,1.763889l8.528405,0l-2.284237,2.275417z"/>
 </g>
</svg>