<svg width="16" height="16" xmlns="http://www.w3.org/2000/svg">

 <g>
  <title>background</title>
  <rect fill="none" id="canvas_background" height="18" width="18" y="-1" x="-1"/>
 </g>
 <g>
  <title>Layer 1</title>
  <path stroke="null" id="svg_1" d="m5.975001,0.125a5.85,5.85 0 0 1 5.85,5.85c0,1.449 -0.531,2.781 -1.404,3.807l0.243,0.243l0.711,0l4.5,4.5l-1.35,1.35l-4.5,-4.5l0,-0.711l-0.243,-0.243c-1.026,0.873 -2.358,1.404 -3.807,1.404a5.85,5.85 0 0 1 -5.85,-5.85a5.85,5.85 0 0 1 5.85,-5.85m0,1.8c-2.25,0 -4.05,1.8 -4.05,4.05c0,2.25 1.8,4.05 4.05,4.05c2.25,0 4.05,-1.8 4.05,-4.05c0,-2.25 -1.8,-4.05 -4.05,-4.05z"/>
 </g>
</svg>