<svg width="23.999999999999996" height="23.999999999999996" xmlns="http://www.w3.org/2000/svg">

 <g>
  <title>background</title>
  <rect fill="none" id="canvas_background" height="402" width="582" y="-1" x="-1"/>
 </g>
 <g>
  <title>Layer 1</title>
  <path fill="#353535" id="svg_1" d="m18,16.08c-0.76,0 -1.44,0.3 -1.96,0.77l-7.13,-4.15c0.05,-0.23 0.09,-0.46 0.09,-0.7c0,-0.24 -0.04,-0.47 -0.09,-0.7l7.05,-4.11c0.54,0.5 1.25,0.81 2.04,0.81a3,3 0 0 0 3,-3a3,3 0 0 0 -3,-3a3,3 0 0 0 -3,3c0,0.24 0.04,0.47 0.09,0.7l-7.05,4.11c-0.54,-0.5 -1.25,-0.81 -2.04,-0.81a3,3 0 0 0 -3,3a3,3 0 0 0 3,3c0.79,0 1.5,-0.31 2.04,-0.81l7.12,4.15c-0.05,0.21 -0.08,0.43 -0.08,0.66c0,1.61 1.31,2.91 2.92,2.91c1.61,0 2.92,-1.3 2.92,-2.91a2.92,2.92 0 0 0 -2.92,-2.92z"/>
 </g>
</svg>