<svg width="24" height="24" xmlns="http://www.w3.org/2000/svg">

 <g>
  <title>background</title>
  <rect fill="none" id="canvas_background" height="4.999878" width="4.999878" y="-1" x="-1"/>
 </g>
 <g>
  <title>Layer 1</title>
  <path fill="#6c6c6c" id="svg_1" d="m5,3l14,0a2,2 0 0 1 2,2l0,14a2,2 0 0 1 -2,2l-14,0a2,2 0 0 1 -2,-2l0,-14a2,2 0 0 1 2,-2m12.71,6.33c0.48,-0.4 1.04,-0.88 1.29,-1.41c-0.41,0.21 -0.9,0.34 -1.44,0.41c0.5,-0.36 0.91,-0.83 1.12,-1.47c-0.52,0.28 -1.05,0.52 -1.71,0.64c-1.55,-1.87 -5.26,-0.35 -4.6,2.45c-2.61,-0.16 -4.2,-1.34 -5.52,-2.79c-0.75,1.22 -0.1,3.07 0.79,3.58c-0.46,-0.03 -0.81,-0.17 -1.14,-0.33c0.04,1.54 0.89,2.28 2.08,2.68c-0.36,0.07 -0.76,0.09 -1.14,0.03c0.37,1.07 1.14,1.74 2.46,1.88c-0.9,0.76 -2.56,1.29 -3.9,1.08c1.15,0.73 2.46,1.31 4.28,1.23c4.41,-0.2 7.36,-3.36 7.43,-7.98z"/>
 </g>
</svg>